<?xml version="1.0" standalone="yes"?>
<svg xmlns="http://www.w3.org/2000/svg" width="503" height="474">
<path style="fill:#223242; stroke:none;" d="M125 207L125 180C125 176.466 125.863 171.515 123.397 168.61C114.14 157.703 94.2785 157.786 91.3287 141C89.49 130.537 90.9959 118.616 91 108C91.0016 103.953 90.7813 99.7524 92.5725 96C97.5903 85.4885 112.395 79.7411 122 74.2809C128.285 70.7078 135.402 65.8994 143 67.3796C148.049 68.3633 152.596 71.217 157 73.7191C166.849 79.3152 182.283 85.2225 187.427 96C188.938 99.1643 188.867 102.6 189.285 106C190.567 116.437 190.631 127.584 189.13 138C187.24 151.11 177.51 155.838 167 162.011C157.938 167.333 148.752 174.061 138 175L138 327C138 334.416 138.638 341.63 138.961 349C139.672 365.256 139.547 381.106 151.174 393.996C161.37 405.3 175.92 412.84 189 420.281C205.968 429.933 222.543 440.496 240 449.247C253.242 455.885 265.768 461.663 281 459.816C289.668 458.764 298.306 454.104 306 450.247C321.057 442.7 335.364 433.602 350 425.281C374.092 411.583 403.595 398.542 407.711 368C411.623 338.976 409 308.266 409 279C409 260.775 407.893 241.812 393.829 228.428C376.542 211.977 352.483 201.463 332 189.576C315.415 179.95 297.607 167.131 278 165.171C253.243 162.695 228.245 182.099 208 193.989C203.033 196.907 197.995 199.708 193 202.579C190.657 203.926 187.554 205.176 186.028 207.529C184.088 210.52 185 215.606 185 219L185 246C192.417 243.193 199.162 238.027 206 234.011C220.223 225.657 234.49 217.157 249 209.309C256.683 205.153 267.905 197.182 277 199.199C285.459 201.076 293.494 206.572 301 210.694C317.168 219.573 333.186 228.907 349 238.4C356.99 243.196 368.239 248.515 372.86 257C375.072 261.06 374.741 265.567 375.17 270C376.264 281.311 376 292.627 376 304L376 343C376 350.806 376.268 360.694 373.005 367.961C369.37 376.058 358.244 381.252 351 385.6C334.819 395.314 318.388 404.639 302 413.999C294.374 418.355 283.9 425.747 275 426.578C269.662 427.076 263.633 423.528 259 421.244C247.688 415.668 236.844 409.029 226 402.603C214.379 395.717 202.479 389.318 191 382.186C185.495 378.766 178.404 374.752 175.09 368.996C169.074 358.551 172 341.577 172 330L172 241L172 213C172 209.17 171.058 203.797 172.603 200.21C174.836 195.027 184.352 191.671 189 189C202.456 181.267 217.611 174.145 221.844 158C224.48 147.948 223 136.328 223 126C223 110.471 226.746 88.9679 218.637 75C215.458 69.5258 210.211 65.5051 205 62.0787C191.648 53.2991 177.243 44.9966 163 37.7562C155.019 33.699 147.232 29.4279 138 30.0903C128.63 30.7626 119.99 36.0618 112 40.5756C100.603 47.0143 89.0622 53.3117 78 60.3195C71.1094 64.6846 63.8657 69.3027 60.3526 77C53.7187 91.5353 57 111.409 57 127C57 139.42 54.9413 154.699 61.1852 165.999C65.5157 173.836 73.5519 178.522 81 183C94.6288 191.194 109.65 202.578 125 207M137 108.703C133.868 109.682 129.895 111.933 128.603 115.104C125.256 123.324 132.134 135.876 142 133.257C145.53 132.32 150.029 129.458 151.397 125.957C154.947 116.867 147.201 105.514 137 108.703M273 259.715C268.841 260.15 264.629 262.865 261 264.781C253.214 268.891 245.565 273.505 238 278.014C234.173 280.295 229.451 282.809 227.514 287.039C223.83 295.082 226 307.353 226 316C226 322.957 224.39 332.665 227.988 338.96C232.111 346.173 243.124 349.995 250 354.012C256.661 357.903 266.823 366.613 275 365.516C278.816 365.004 282.629 362.481 286 360.742C294.134 356.543 302.222 351.765 310 346.936C313.652 344.669 318.569 342.164 320.258 337.96C323.397 330.142 321 317.368 321 309C321 302.597 323.027 291.898 319.821 286.174C315.805 279.005 303.871 274.626 297 270.719C290.512 267.031 280.858 258.892 273 259.715z"/>
</svg>
